<?xml version="1.0" encoding="UTF-8"?>
<svg xmlns="http://www.w3.org/2000/svg" xmlns:xlink="http://www.w3.org/1999/xlink" width="1125pt" height="1124.99995pt" viewBox="0 0 1125 1124.99995" version="1.2">
<defs>
<clipPath id="clip1">
  <path d="M 262.566406 262.566406 L 862.566406 262.566406 L 862.566406 862.566406 L 262.566406 862.566406 Z M 262.566406 262.566406 "/>
</clipPath>
</defs>
<g id="surface1">
<g clip-path="url(#clip1)" clip-rule="nonzero">
<path style=" stroke:none;fill-rule:nonzero;fill:rgb(0%,0%,0%);fill-opacity:1;" d="M 808.148438 262.566406 L 317.125 262.566406 C 286.980469 262.566406 262.566406 286.980469 262.566406 317.125 L 262.566406 808.148438 C 262.566406 838.289062 286.980469 862.707031 317.125 862.707031 L 589.914062 862.707031 L 589.914062 617.195312 L 508.078125 617.195312 L 508.078125 535.355469 L 589.914062 535.355469 L 589.914062 491.410156 C 589.914062 408.207031 630.449219 371.679688 699.605469 371.679688 C 732.71875 371.679688 750.234375 374.136719 758.527344 375.253906 L 758.527344 453.519531 L 711.359375 453.519531 C 682.007812 453.519531 671.75 469.011719 671.75 500.382812 L 671.75 535.355469 L 757.789062 535.355469 L 746.113281 617.195312 L 671.75 617.195312 L 671.75 862.707031 L 808.148438 862.707031 C 838.289062 862.707031 862.707031 838.289062 862.707031 808.148438 L 862.707031 317.125 C 862.707031 286.980469 838.261719 262.566406 808.148438 262.566406 Z M 808.148438 262.566406 "/>
</g>
</g>
</svg>
