<?xml version="1.0" encoding="UTF-8"?>
<svg xmlns="http://www.w3.org/2000/svg" xmlns:xlink="http://www.w3.org/1999/xlink" width="1125pt" height="1124.99995pt" viewBox="0 0 1125 1124.99995" version="1.2">
<defs>
<clipPath id="clip1">
  <path d="M 269 269.355469 L 857 269.355469 L 857 855.855469 L 269 855.855469 Z M 269 269.355469 "/>
</clipPath>
</defs>
<g id="surface1">
<g clip-path="url(#clip1)" clip-rule="nonzero">
<path style=" stroke:none;fill-rule:nonzero;fill:rgb(0%,0%,0%);fill-opacity:1;" d="M 840.683594 525.601562 L 599.839844 284.753906 C 589.625 274.488281 576.171875 269.355469 562.722656 269.355469 C 549.269531 269.355469 535.816406 274.488281 525.601562 284.753906 L 477.972656 332.382812 L 536.914062 391.324219 C 556.492188 379.816406 582.003906 382.308594 598.792969 399.097656 C 615.582031 415.886719 618.023438 441.398438 606.515625 460.929688 L 664.460938 518.875 C 684.039062 507.363281 709.546875 509.855469 726.339844 526.644531 C 746.269531 546.574219 746.269531 578.859375 726.339844 598.789062 C 706.410156 618.71875 674.125 618.71875 654.195312 598.789062 C 637.40625 582 634.914062 556.492188 646.421875 536.910156 L 588.480469 478.964844 C 584.34375 481.40625 580.007812 483.199219 575.476562 484.347656 L 575.476562 641.042969 C 597.449219 646.722656 613.738281 666.5 613.738281 690.265625 C 613.738281 718.46875 590.921875 741.285156 562.722656 741.285156 C 534.519531 741.285156 511.703125 718.46875 511.703125 690.265625 C 511.703125 666.5 527.996094 646.722656 549.964844 641.042969 L 549.964844 484.347656 C 541.445312 482.152344 533.324219 477.917969 526.648438 471.242188 C 509.859375 454.453125 507.417969 428.941406 518.925781 409.410156 L 459.9375 350.421875 L 284.761719 525.601562 C 264.234375 546.078125 264.234375 579.359375 284.761719 599.835938 L 525.601562 840.683594 C 535.816406 850.949219 549.269531 856.078125 562.722656 856.078125 C 576.171875 856.078125 589.625 850.949219 599.839844 840.683594 L 840.683594 599.835938 C 861.210938 579.359375 861.210938 546.078125 840.683594 525.601562 Z M 840.683594 525.601562 "/>
</g>
</g>
</svg>
