<?xml version="1.0" encoding="UTF-8"?>
<svg xmlns="http://www.w3.org/2000/svg" xmlns:xlink="http://www.w3.org/1999/xlink" width="1125pt" height="1124.99995pt" viewBox="0 0 1125 1124.99995" version="1.2">
<defs>
<clipPath id="clip1">
  <path d="M 262.566406 262.566406 L 862.566406 262.566406 L 862.566406 862.566406 L 262.566406 862.566406 Z M 262.566406 262.566406 "/>
</clipPath>
</defs>
<g id="surface1">
<g clip-path="url(#clip1)" clip-rule="nonzero">
<path style=" stroke:none;fill-rule:nonzero;fill:rgb(0%,0%,0%);fill-opacity:1;" d="M 808.148438 262.566406 L 317.125 262.566406 C 286.980469 262.566406 262.566406 286.980469 262.566406 317.125 L 262.566406 808.148438 C 262.566406 838.289062 286.980469 862.707031 317.125 862.707031 L 808.148438 862.707031 C 838.289062 862.707031 862.707031 838.289062 862.707031 808.148438 L 862.707031 317.125 C 862.707031 286.980469 838.289062 262.566406 808.148438 262.566406 Z M 452.265625 753.589844 L 371.789062 753.589844 L 371.789062 494.65625 L 452.265625 494.65625 Z M 411.207031 457.636719 C 385.265625 457.636719 364.289062 436.605469 364.289062 410.71875 C 364.289062 384.828125 385.292969 363.824219 411.207031 363.824219 C 437.070312 363.824219 458.101562 384.855469 458.101562 410.71875 C 458.101562 436.605469 437.070312 457.636719 411.207031 457.636719 Z M 753.699219 753.589844 L 673.28125 753.589844 L 673.28125 627.667969 C 673.28125 597.632812 672.734375 559.007812 631.460938 559.007812 C 589.585938 559.007812 583.148438 591.714844 583.148438 625.484375 L 583.148438 753.589844 L 502.730469 753.589844 L 502.730469 494.65625 L 579.929688 494.65625 L 579.929688 530.035156 L 581.019531 530.035156 C 591.769531 509.6875 618.011719 488.21875 657.15625 488.21875 C 738.640625 488.21875 753.699219 541.847656 753.699219 611.574219 Z M 753.699219 753.589844 "/>
</g>
</g>
</svg>
