<?xml version="1.0" encoding="UTF-8"?>
<svg xmlns="http://www.w3.org/2000/svg" xmlns:xlink="http://www.w3.org/1999/xlink" width="1125pt" height="1124.99995pt" viewBox="0 0 1125 1124.99995" version="1.2">
<defs>
<clipPath id="clip1">
  <path d="M 262.328125 262.328125 L 862.328125 262.328125 L 862.328125 862.328125 L 262.328125 862.328125 Z M 262.328125 262.328125 "/>
</clipPath>
</defs>
<g id="surface1">
<g clip-path="url(#clip1)" clip-rule="nonzero">
<path style=" stroke:none;fill-rule:nonzero;fill:rgb(0%,0%,0%);fill-opacity:1;" d="M 787.328125 862.328125 L 337.328125 862.328125 C 295.929688 862.328125 262.328125 828.726562 262.328125 787.328125 L 262.328125 337.328125 C 262.328125 295.929688 295.929688 262.328125 337.328125 262.328125 L 787.328125 262.328125 C 828.726562 262.328125 862.328125 295.929688 862.328125 337.328125 L 862.328125 787.328125 C 862.328125 828.726562 828.726562 862.328125 787.328125 862.328125 Z M 492.726562 714.726562 C 634.179688 714.726562 711.578125 597.429688 711.578125 495.878906 C 711.578125 492.578125 711.578125 489.277344 711.429688 485.976562 C 726.429688 475.179688 739.476562 461.527344 749.828125 446.078125 C 736.027344 452.226562 721.179688 456.277344 705.578125 458.226562 C 721.476562 448.777344 733.628906 433.628906 739.476562 415.628906 C 724.628906 424.476562 708.128906 430.777344 690.578125 434.226562 C 676.476562 419.226562 656.527344 409.929688 634.476562 409.929688 C 592.027344 409.929688 557.527344 444.429688 557.527344 486.878906 C 557.527344 492.878906 558.277344 498.726562 559.476562 504.429688 C 495.578125 501.277344 438.878906 470.527344 400.929688 424.027344 C 394.328125 435.429688 390.578125 448.628906 390.578125 462.726562 C 390.578125 489.429688 404.226562 512.976562 424.777344 526.777344 C 412.179688 526.328125 400.328125 522.878906 389.976562 517.179688 C 389.976562 517.476562 389.976562 517.777344 389.976562 518.226562 C 389.976562 555.429688 416.527344 586.628906 451.628906 593.679688 C 445.179688 595.476562 438.429688 596.378906 431.378906 596.378906 C 426.429688 596.378906 421.628906 595.929688 416.976562 595.027344 C 426.726562 625.628906 455.226562 647.828125 488.828125 648.429688 C 462.429688 669.128906 429.277344 681.429688 393.277344 681.429688 C 387.128906 681.429688 380.976562 681.128906 374.976562 680.378906 C 408.878906 701.976562 449.378906 714.726562 492.726562 714.726562 "/>
</g>
</g>
</svg>
